<?xml version="1.0" encoding="UTF-8" standalone="no"?>
<!-- Created with Inkscape (http://www.inkscape.org/) -->

<svg
   width="128"
   height="128"
   viewBox="0 0 33.866666 33.866668"
   version="1.1"
   id="svg5"
   inkscape:version="1.1.1 (3bf5ae0d25, 2021-09-20)"
   sodipodi:docname="generatedmap.svg"
   xmlns:inkscape="http://www.inkscape.org/namespaces/inkscape"
   xmlns:sodipodi="http://sodipodi.sourceforge.net/DTD/sodipodi-0.dtd"
   xmlns="http://www.w3.org/2000/svg"
   xmlns:svg="http://www.w3.org/2000/svg">
  <sodipodi:namedview
     id="namedview7"
     pagecolor="#505050"
     bordercolor="#eeeeee"
     borderopacity="1"
     inkscape:pageshadow="0"
     inkscape:pageopacity="0"
     inkscape:pagecheckerboard="0"
     inkscape:document-units="mm"
     showgrid="true"
     units="px"
     width="32px"
     inkscape:zoom="9.0608869"
     inkscape:cx="70.026257"
     inkscape:cy="65.059856"
     inkscape:window-width="2560"
     inkscape:window-height="1404"
     inkscape:window-x="3840"
     inkscape:window-y="725"
     inkscape:window-maximized="1"
     inkscape:current-layer="layer1">
    <inkscape:grid
       type="xygrid"
       id="grid824"
       empspacing="4" />
    <inkscape:grid
       type="xygrid"
       id="grid826"
       empspacing="1"
       originy="0.13229167"
       originx="0.13229167"
       dotted="true" />
  </sodipodi:namedview>
  <defs
     id="defs2" />
  <g
     inkscape:label="Layer 1"
     inkscape:groupmode="layer"
     id="layer1">
    <path
       id="path2078"
       style="color:#000000;fill:#ffffff;fill-opacity:0.5;stroke-width:1.99999;-inkscape-stroke:none"
       d="M 4.2333333,4.2333333 V 4.6074705 L 4.6074707,4.2333333 Z m 1.7414958,0 -1.7414958,1.7414948 V 6.7251695 L 6.7251709,4.2333333 Z m 2.1166669,0 -3.8581627,3.8581604 v 0.750341 L 8.8418374,4.2333333 Z m 2.1177,0 -5.9758627,5.9758597 v 0.750341 L 10.959538,4.2333333 Z m 2.116666,0 -8.0925287,8.0925237 v 0.750342 L 13.076204,4.2333333 Z m 2.1177,0 L 4.2333333,14.443556 v 0.750341 L 15.193904,4.2333333 Z m 2.1146,0 -0.153996,0.1539959 v -0.00206 L 4.385262,16.404159 h -0.0031 l -0.1488287,0.148828 v 0.380338 h 0.3700033 l 0.5291667,-0.529166 h 0.0031 L 14.816666,6.7231025 v 0.00206 L 16.933332,4.6085041 V 4.2333333 Z m 0.37517,1.7404612 -0.529166,0.5291665 v 0.00103 l -1.5875,1.5874993 -8.3137038,8.3126657 h -0.00413 l -0.5291708,0.529169 h 0.7503419 l 0.5291666,-0.529166 h 0.00413 L 14.816662,8.8418347 v -0.00103 l 1.5875,-1.5874991 0.529166,-0.5291663 z m 0,2.1187326 -0.529166,0.5291665 v -0.00206 L 8.6196286,16.404166 h -0.0031 l -0.529167,0.529159 h 0.7503419 l 0.5291667,-0.529166 h 0.0031 l 5.4466958,-5.446692 v 0.0021 l 2.116666,-2.1166657 z m 0,2.1156319 -0.529166,0.529167 v 0.001 l -1.5875,1.587498 -4.079337,4.078302 h -0.0041 l -0.529171,0.529166 h 0.750342 l 0.529167,-0.529163 h 0.0041 l 3.328995,-3.32796 v -0.001 l 1.5875,-1.587499 0.529166,-0.529166 z m 0,2.118732 -0.529166,0.529166 v -0.0021 l -3.550171,3.550162 h -0.0031 l -0.529167,0.529166 h 0.750342 l 0.155029,-0.155029 0.374137,-0.374137 h 0.0031 l 1.21233,-1.212289 v 0.0021 l 2.116666,-2.116665 z m 0,2.112531 -1.964738,1.964737 -0.157096,0.157096 v -0.0052 l -0.377238,0.377237 h 0.755509 l 0.529167,-0.529166 h 0.0031 l 0.682129,-0.682128 v -0.0031 l 0.529166,-0.529167 z m 0,2.116665 -0.377238,0.377238 h 0.377238 z" />
    <path
       id="path2078-5"
       style="color:#000000;fill:#ffffff;fill-opacity:0.5;stroke-width:1.99999;-inkscape-stroke:none"
       d="M 16.933332,4.2333333 V 4.6074705 L 17.30747,4.2333333 Z m 1.741496,0 -1.741496,1.7414948 V 6.7251695 L 19.42517,4.2333333 Z m 2.116667,0 -3.858163,3.8581604 v 0.750341 l 4.608504,-4.6085014 z m 2.1177,0 -5.975863,5.9758597 v 0.750341 l 6.726205,-6.7262007 z m 2.116667,0 -8.09253,8.0925237 v 0.750342 l 8.842872,-8.8428657 z m 2.1177,0 -10.21023,10.2102227 v 0.750341 L 27.893904,4.2333333 Z m 2.1146,0 -0.153996,0.1539959 v -0.00206 L 17.085261,16.404159 h -0.0031 l -0.148829,0.148828 v 0.380338 h 0.370004 l 0.529166,-0.529166 h 0.0031 l 9.681064,-9.6810565 v 0.00206 L 29.633332,4.6085041 V 4.2333333 Z m 0.37517,1.7404612 -0.529166,0.5291665 v 0.00103 l -1.5875,1.5874993 -8.313705,8.3126657 h -0.0041 l -0.529171,0.529169 h 0.750342 l 0.529167,-0.529166 h 0.0041 l 7.563363,-7.5623243 v -0.00103 l 1.5875,-1.5874991 0.529166,-0.5291663 z m 0,2.1187326 -0.529166,0.5291665 v -0.00206 l -7.784538,7.7845324 h -0.0031 l -0.529167,0.529159 h 0.750341 l 0.529167,-0.529166 h 0.0031 l 5.446697,-5.446692 v 0.0021 l 2.116666,-2.1166657 z m 0,2.1156319 -0.529166,0.529167 v 0.001 l -1.5875,1.587498 -4.079338,4.078302 h -0.0041 l -0.529171,0.529166 h 0.750342 l 0.529167,-0.529163 h 0.0041 l 3.328996,-3.32796 v -0.001 l 1.5875,-1.587499 0.529166,-0.529166 z m 0,2.118732 -0.529166,0.529166 v -0.0021 l -3.550171,3.550162 h -0.0031 l -0.529168,0.529166 h 0.750342 l 0.15503,-0.155029 0.374137,-0.374137 h 0.0031 l 1.21233,-1.212329 v 0.0021 l 2.116666,-2.116665 z m 0,2.112531 -1.964738,1.964737 -0.157096,0.157096 v -0.0052 l -0.377238,0.377237 h 0.755509 l 0.529167,-0.529166 h 0.0031 l 0.682129,-0.682128 v -0.0031 l 0.529166,-0.529167 z m 0,2.116665 -0.377238,0.377238 h 0.377238 z" />
    <path
       id="path2078-6"
       style="color:#000000;fill:#ffffff;fill-opacity:0.5;stroke-width:1.99999;-inkscape-stroke:none"
       d="m 4.2333333,16.933333 v 0.374137 l 0.3741374,-0.374137 z m 1.7414958,0 -1.7414958,1.741495 v 0.750341 l 2.4918376,-2.491836 z m 2.1166669,0 -3.8581627,3.85816 v 0.750342 l 4.6085041,-4.608502 z m 2.1177,0 -5.9758627,5.97586 v 0.750341 l 6.7262047,-6.726201 z m 2.116666,0 -8.0925287,8.092524 v 0.750342 l 8.8428707,-8.842866 z m 2.1177,0 -10.2102287,10.210223 v 0.750341 L 15.193904,16.933333 Z m 2.1146,0 -0.153996,0.153996 v -0.0021 L 4.385262,29.104159 h -0.0031 l -0.1488287,0.148828 v 0.380338 h 0.3700033 l 0.5291667,-0.529166 h 0.0031 l 9.6810627,-9.681057 v 0.0021 l 2.116666,-2.116658 v -0.375211 z m 0.37517,1.740461 -0.529166,0.529167 v 0.001 l -1.5875,1.587499 -8.3137038,8.312666 h -0.00413 l -0.5291708,0.529199 h 0.7503419 l 0.5291666,-0.529166 h 0.00413 l 7.5633621,-7.562325 v -0.001 l 1.5875,-1.587499 0.529166,-0.529166 z m 0,2.118733 -0.529166,0.529166 v -0.0021 l -7.7845374,7.784533 h -0.0031 l -0.529167,0.529159 h 0.7503419 l 0.5291667,-0.529166 h 0.0031 l 5.4466958,-5.446692 v 0.0021 l 2.116666,-2.116666 z m 0,2.115632 -0.529166,0.529167 v 0.001 l -1.5875,1.587498 -4.079337,4.078302 h -0.0041 l -0.529171,0.529166 H 10.9544 l 0.529167,-0.529163 h 0.0041 l 3.328995,-3.32796 v -10e-4 l 1.5875,-1.587499 0.529166,-0.529166 z m 0,2.118732 -0.529166,0.529166 v -0.0021 l -3.550171,3.550162 h -0.0031 l -0.529167,0.529166 h 0.750342 l 0.155029,-0.155029 0.374137,-0.374137 h 0.0031 l 1.21233,-1.212289 v 0.0021 l 2.116666,-2.116665 z m 0,2.112531 -1.964738,1.964737 -0.157096,0.157096 v -0.0052 l -0.377238,0.377237 h 0.755509 l 0.529167,-0.529166 h 0.0031 l 0.682129,-0.682128 v -0.0031 l 0.529166,-0.529167 z m 0,2.116665 -0.377238,0.377238 h 0.377238 z" />
    <path
       id="path2078-5-2"
       style="color:#000000;fill:#ffffff;fill-opacity:0.5;stroke-width:1.99999;-inkscape-stroke:none"
       d="m 16.933332,16.933333 v 0.374137 l 0.374138,-0.374137 z m 1.741496,0 -1.741496,1.741495 v 0.750341 l 2.491838,-2.491836 z m 2.116667,0 -3.858163,3.85816 v 0.750342 l 4.608504,-4.608502 z m 2.1177,0 -5.975863,5.97586 v 0.750341 l 6.726205,-6.726201 z m 2.116667,0 -8.09253,8.092524 v 0.750342 l 8.842872,-8.842866 z m 2.1177,0 -10.21023,10.210223 v 0.750341 L 27.893904,16.933333 Z m 2.1146,0 -0.153996,0.153996 v -0.0021 l -12.018905,12.01889 h -0.0031 l -0.148829,0.148828 v 0.380338 h 0.370004 l 0.529166,-0.529166 h 0.0031 l 9.681064,-9.681057 v 0.0021 l 2.116666,-2.116658 v -0.375171 z m 0.37517,1.740461 -0.529166,0.529167 v 0.001 l -1.5875,1.587499 -8.313705,8.312666 h -0.0041 l -0.529171,0.529169 h 0.750342 l 0.529167,-0.529166 h 0.0041 l 7.563363,-7.562325 v -10e-4 l 1.5875,-1.587499 0.529166,-0.529166 z m 0,2.118733 -0.529166,0.529166 v -0.0021 l -7.784538,7.784533 h -0.0031 l -0.529167,0.529159 h 0.750341 l 0.529167,-0.529166 h 0.0031 l 5.446697,-5.446692 v 0.0021 l 2.116666,-2.116666 z m 0,2.115632 -0.529166,0.529167 v 0.001 l -1.5875,1.587498 -4.079338,4.078302 h -0.0041 l -0.529171,0.529166 h 0.750342 l 0.529167,-0.529163 h 0.0041 l 3.328996,-3.32796 v -10e-4 l 1.5875,-1.587499 0.529166,-0.529166 z m 0,2.118732 -0.529166,0.529166 v -0.0021 l -3.550171,3.550162 h -0.0031 l -0.529168,0.529166 h 0.750342 l 0.15503,-0.155029 0.374137,-0.374137 h 0.0031 l 1.21233,-1.212329 v 0.0021 l 2.116666,-2.116665 z m 0,2.112531 -1.964738,1.964737 -0.157096,0.157096 v -0.0052 l -0.377238,0.377237 h 0.755509 l 0.529167,-0.529166 h 0.0031 l 0.682129,-0.682128 v -0.0031 l 0.529166,-0.529167 z m 0,2.116665 -0.377238,0.377238 h 0.377238 z" />
  </g>
</svg>
